#!OML:ASF H:\ManfredObstacles\Project 1\Capture day 1\Session 1\Male.ASF
:FULLY-SPECIFIED
:DEGREES
432
root -5.57295 16.7777 -11.8799 -166.149 -60.9524 -183.67
lowerback -12.7122 -2.36417 -2.629
upperback 1.5954 -2.93905 2.07063
thorax 9.11625 -1.62096 3.1035
lowerneck -4.42414 2.76982 -5.23653
upperneck -5.91328 3.85059 3.83906
head -1.2952 1.92555 2.11602
rclavicle -3.61788e-014 -1.03368e-014
rhumerus -32.6392 -25.8092 -75.0082
rradius 22.5313
rwrist 38.4528
rhand 0.463787 -6.10141
rfingers 7.12502
rthumb 26.0345 -34.3376
lclavicle -3.61788e-014 -1.03368e-014
lhumerus -26.3355 12.3756 87.2454
lradius 15.3474
lwrist -36
lhand -9.17213 8.59311
lfingers 7.12502
lthumb 16.7807 37.8879
rfemur -25.0807 -11.0818 22.3748
rtibia 25.0366
rfoot -16.158 8.39207
rtoes 23.3616
lfemur 6.06089 -9.01893 -12.5659
ltibia 12.3985
lfoot 28.41 -8.88619
ltoes 14.6613
433
root -5.58611 16.7738 -11.8883 -166.398 -61.0241 -183.439
lowerback -12.6581 -2.3714 -2.50661
upperback 1.5884 -2.97259 2.10315
thorax 9.07516 -1.6317 3.06373
lowerneck -4.40465 2.83895 -5.24017
upperneck -5.88537 3.94374 3.85588
head -1.29482 1.97235 2.12179
rclavicle -1.07145e-013 1.19271e-014
rhumerus -32.6645 -25.583 -75.0863
rradius 22.5452
rwrist 38.4254
rhand 0.372694 -6.14032
rfingers 7.12502
rthumb 25.9473 -34.3893
lclavicle -1.07145e-013 1.19271e-014
lhumerus -26.3232 12.8465 87.0683
lradius 15.2109
lwrist -36.372
lhand -9.15999 8.46672
lfingers 7.12502
lthumb 16.7924 37.7606
rfemur -24.9907 -11.3357 22.5689
rtibia 25.0783
rfoot -16.2605 8.44113
rtoes 22.4457
lfemur 6.10935 -9.03238 -12.4152
ltibia 12.5001
lfoot 28.517 -8.86289
ltoes 15.0841
434
root -5.59102 16.7722 -11.9003 -166.73 -61.1585 -183.018
lowerback -12.609 -2.31343 -2.2662
upperback 1.53498 -2.93029 2.06566
thorax 8.96953 -1.59629 2.89811
lowerneck -4.28785 2.86005 -5.05669
upperneck -5.9082 3.9636 3.87298
head -1.31881 1.97794 2.09252
rclavicle 9.34288e-015 1.74931e-014
rhumerus -32.8019 -25.7135 -75.1681
rradius 22.4615
rwrist 38.4441
rhand 0.126842 -6.11446
rfingers 7.12502
rthumb 25.7119 -34.3977
lclavicle 9.34288e-015 1.74931e-014
lhumerus -26.3302 12.5852 86.9805
lradius 15.2432
lwrist -36.2189
lhand -9.04139 8.47951
lfingers 7.12502
lthumb 16.9066 37.7636
rfemur -24.9702 -11.2297 22.8239
rtibia 25.0959
rfoot -16.3547 8.22424
rtoes 22.0992
lfemur 6.01736 -9.10761 -12.0999
ltibia 12.5795
lfoot 28.5819 -8.8501
ltoes 15.2359
435
root -5.59728 16.7728 -11.9113 -166.701 -61.2683 -182.984
lowerback -12.6198 -2.28721 -2.26088
upperback 1.51887 -2.89455 2.05177
thorax 8.95437 -1.57795 2.88748
lowerneck -4.26405 2.88256 -5.06192
upperneck -5.92146 3.99336 3.86708
head -1.3286 1.99303 2.09104
rclavicle 6.06293e-014 -7.95139e-016
rhumerus -32.7932 -25.7837 -75.1821
rradius 22.3627
rwrist 38.4856
rhand -0.0840474 -6.09603
rfingers 7.12502
rthumb 25.5099 -34.4083
lclavicle 6.06293e-014 -7.95139e-016
lhumerus -26.2689 12.355 87.0621
lradius 15.3121
lwrist -35.9787
lhand -8.99852 8.47845
lfingers 7.12502
lthumb 16.9479 37.759
rfemur -24.9565 -10.9659 22.8125
rtibia 25.0979
rfoot -16.3954 7.95545
rtoes 22.6041
lfemur 5.89896 -9.23252 -12.0165
ltibia 12.643
lfoot 28.6817 -8.84566
ltoes 14.9031
436
root -5.60765 16.7748 -11.9172 -166.558 -61.3062 -183.148
lowerback -12.6009 -2.24505 -2.31879
upperback 1.54715 -2.82904 2.04895
thorax 8.97246 -1.54955 2.93112
lowerneck -4.42499 2.9196 -5.21961
upperneck -5.77314 4.0563 3.90957
head -1.26192 2.02943 2.13615
rclavicle -1.75924e-014 1.11319e-014
rhumerus -32.741 -25.7256 -75.1353
rradius 22.3604
rwrist 38.6126
rhand -0.0558569 -6.10857
rfingers 7.12502
rthumb 25.5369 -34.417
lclavicle -1.75924e-014 1.11319e-014
lhumerus -26.1026 12.5085 87.176
lradius 15.2602
lwrist -36.1661
lhand -9.0368 8.41893
lfingers 7.12502
lthumb 16.911 37.7027
rfemur -24.8826 -10.8616 22.6918
rtibia 25.0816
rfoot -16.4255 7.82183
rtoes 23.0574
lfemur 5.83392 -9.40537 -12.1079
ltibia 12.8088
lfoot 28.7597 -8.62669
ltoes 15.1255
437
root -5.61735 16.7776 -11.9243 -166.249 -61.2509 -183.555
lowerback -12.5393 -2.20032 -2.52798
upperback 1.57867 -2.73002 1.98008
thorax 8.97093 -1.50992 2.99758
lowerneck -4.39918 2.99058 -5.14415
upperneck -5.79716 4.14429 3.80446
head -1.27362 2.07275 2.08711
rclavicle 1.26228e-013 -2.94201e-014
rhumerus -32.7846 -25.6622 -75.149
rradius 22.4603
rwrist 38.6312
rhand 0.0606532 -6.14946
rfingers 7.12502
rthumb 25.6485 -34.4419
lclavicle 1.26228e-013 -2.94201e-014
lhumerus -25.9807 12.3274 87.3731
lradius 15.3192
lwrist -36.1279
lhand -9.02505 8.43556
lfingers 7.12502
lthumb 16.9223 37.7183
rfemur -24.8192 -10.8845 22.4675
rtibia 25.1313
rfoot -16.4897 7.81347
rtoes 22.5538
lfemur 5.90146 -9.49833 -12.3415
ltibia 12.851
lfoot 28.8966 -8.33925
ltoes 15.5855
438
root -5.61994 16.7807 -11.9348 -166.108 -61.3985 -183.596
lowerback -12.5724 -2.26372 -2.63628
upperback 1.55932 -2.79797 1.99027
thorax 8.98053 -1.54835 3.05512
lowerneck -4.29438 3.20925 -4.92603
upperneck -5.91221 4.41747 3.59395
head -1.32974 2.20553 1.97569
rclavicle 9.44227e-015 -1.59028e-015
rhumerus -32.6905 -25.421 -75.3234
rradius 22.4968
rwrist 38.3535
rhand 0.24192 -6.25492
rfingers 7.12502
rthumb 25.8221 -34.5222
lclavicle 9.44227e-015 -1.59028e-015
lhumerus -25.9134 11.4478 87.8085
lradius 15.6178
lwrist -35.1229
lhand -9.05468 8.61681
lfingers 7.12502
lthumb 16.8938 37.902
rfemur -24.9299 -10.9115 22.5132
rtibia 25.1798
rfoot -16.5907 7.67706
rtoes 21.8574
lfemur 5.72381 -9.43578 -12.217
ltibia 12.8616
lfoot 29.1846 -8.44651
ltoes 15.5083
